<svg width="20" height="20" viewBox="0 0 20 20" fill="none" xmlns="http://www.w3.org/2000/svg">
<g id="AddFilled">
<path id="Vector" d="M15.8327 9.99996C15.8327 10.4602 15.4596 10.8333 14.9993 10.8333H11.8327C11.2804 10.8333 10.8327 11.281 10.8327 11.8333V15C10.8327 15.4602 10.4596 15.8333 9.99935 15.8333C9.53911 15.8333 9.16602 15.4602 9.16602 15V11.8333C9.16602 11.281 8.7183 10.8333 8.16602 10.8333H4.99935C4.53911 10.8333 4.16602 10.4602 4.16602 9.99996C4.16602 9.53972 4.53911 9.16663 4.99935 9.16663H8.16602C8.7183 9.16663 9.16602 8.71891 9.16602 8.16663V4.99996C9.16602 4.53972 9.53911 4.16663 9.99935 4.16663C10.4596 4.16663 10.8327 4.53972 10.8327 4.99996V8.16663C10.8327 8.71891 11.2804 9.16663 11.8327 9.16663H14.9993C15.4596 9.16663 15.8327 9.53972 15.8327 9.99996Z" fill="#F57E5D"/>
</g>
</svg>
