<svg width="24" height="24" viewBox="0 0 24 24" fill="none" xmlns="http://www.w3.org/2000/svg">
<path d="M15.2996 3.82775C15.7532 3.30492 16.0991 2.69763 16.3174 2.04075C16.5356 1.38387 16.622 0.690347 16.5715 0C15.1788 0.112417 13.8861 0.767416 12.9717 1.82388C12.5339 2.33022 12.2021 2.91926 11.996 3.55614C11.7899 4.19301 11.7136 4.86477 11.7718 5.53163C12.4511 5.53729 13.1227 5.38656 13.7344 5.09109C14.3461 4.79563 14.8817 4.36336 15.2996 3.82775ZM18.3234 12.7552C18.3314 11.8357 18.5736 10.9335 19.0271 10.1336C19.4806 9.33368 20.1304 8.66253 20.9152 8.18346C20.4199 7.46979 19.7651 6.88134 19.0028 6.46478C18.2405 6.04822 17.3916 5.815 16.5235 5.78362C14.6516 5.59163 12.9237 6.87554 11.9278 6.87554C10.9319 6.87554 9.52795 5.80761 7.96806 5.83161C6.94828 5.86521 5.95461 6.16253 5.08398 6.69458C4.21335 7.22663 3.49548 7.97525 3.00039 8.86741C0.888526 12.5392 2.46042 17.9988 4.57228 20.9626C5.53222 22.4145 6.73214 24.0584 8.31603 23.9984C9.89993 23.9384 10.4159 23.0145 12.2518 23.0145C14.0876 23.0145 14.6516 23.9984 16.2115 23.9624C17.7714 23.9264 18.8753 22.4745 19.8833 21.0226C20.5973 19.9685 21.155 18.8167 21.5392 17.6028C20.5882 17.1973 19.7769 16.522 19.2054 15.6605C18.6339 14.799 18.3272 13.789 18.3234 12.7552Z" fill="black"/>
</svg>
