<svg width="21" height="20" viewBox="0 0 21 20" fill="none" xmlns="http://www.w3.org/2000/svg">
<path fill-rule="evenodd" clipRule="evenodd" d="M19.3879 7.42375C19.4452 7.42375 19.5024 7.42819 19.559 7.43701C20.122 7.52477 20.52 8.02091 20.4983 8.5768L20.4857 8.70599L19.0214 18.1008C18.7293 19.5762 17.4624 19.9443 15.9398 19.9938L15.5373 20H5.3238L4.92129 19.9938C3.46499 19.9464 2.24299 19.6072 1.88337 18.287L1.83973 18.1008L0.510914 8.69022C0.503647 8.63875 0.5 8.58684 0.5 8.53487C0.5 7.96505 0.928934 7.49541 1.48153 7.43123L1.61111 7.42375H19.3879ZM18.3216 8.98148H2.93163C2.90675 8.98148 2.8819 8.98315 2.85725 8.98648C2.58697 9.023 2.3885 9.24812 2.37658 9.51125L2.38108 9.61141L3.44752 17.5053C3.58127 18.1775 4.18329 18.3605 4.87503 18.409L5.17588 18.4226L5.50143 18.4259H15.5373C16.4595 18.4259 17.2412 18.376 17.4136 17.5053L18.8682 9.63723C18.8742 9.60417 18.8773 9.57064 18.8773 9.53704C18.8773 9.23017 18.6285 8.98148 18.3216 8.98148ZM14.3253 11.412C14.7855 11.412 15.1586 11.7851 15.1586 12.2454V15.0231C15.1586 15.4834 14.7855 15.8565 14.3253 15.8565C13.865 15.8565 13.492 15.4834 13.492 15.0231V12.2454C13.492 11.7851 13.865 11.412 14.3253 11.412ZM10.4364 11.412C10.8966 11.412 11.2697 11.7851 11.2697 12.2454V15.0231C11.2697 15.4834 10.8966 15.8565 10.4364 15.8565C9.97616 15.8565 9.60307 15.4834 9.60307 15.0231V12.2454C9.60307 11.7851 9.97616 11.412 10.4364 11.412ZM6.54751 11.412C7.00775 11.412 7.38084 11.7851 7.38084 12.2454V15.0231C7.38084 15.4834 7.00775 15.8565 6.54751 15.8565C6.08727 15.8565 5.71418 15.4834 5.71418 15.0231V12.2454C5.71418 11.7851 6.08727 11.412 6.54751 11.412ZM10.4444 8.21763e-05C10.6699 -0.00284896 10.8962 0.0726326 11.0681 0.22654L15.5467 4.23704C15.884 4.53908 15.884 5.02877 15.5467 5.33081C15.2094 5.63285 14.6626 5.63285 14.3253 5.33081L10.4454 1.85529L6.56484 5.33081C6.22755 5.63285 5.68068 5.63285 5.34339 5.33081C5.00609 5.02877 5.00609 4.53908 5.34339 4.23704L9.82206 0.22654C9.99367 0.0728722 10.2195 -0.00261375 10.4444 8.21763e-05Z" fill="#455A64"/>
</svg>
