<svg width="20" height="20" viewBox="0 0 20 20" fill="none" xmlns="http://www.w3.org/2000/svg">
<g id="Icons">
<path id="Search" fill-rule="evenodd" clipRule="evenodd" d="M7.96658 0C12.3664 0 15.9332 3.56676 15.9332 7.96658C15.9332 9.78457 15.1591 11.6415 14.134 12.9822L19.5232 18.3679C19.9065 18.7799 19.9985 19.2736 19.6886 19.6886C19.3788 20.1036 18.6414 20.1036 18.1862 19.6889L12.7956 14.3032C11.4559 15.3258 9.78214 15.9332 7.96658 15.9332C3.56676 15.9332 0 12.3664 0 7.96658C0 3.56676 3.56676 0 7.96658 0ZM7.96658 1.69488C4.37679 1.69488 1.65316 4.37443 1.65316 7.96658C1.65316 11.5587 4.09071 14.3032 7.96658 14.3032C11.8424 14.3032 14.3925 11.6806 14.3925 7.96658C14.3925 4.25254 11.5564 1.69488 7.96658 1.69488Z" fill="#607D8B"/>
</g>
</svg>
