<svg width="25" height="24" viewBox="0 0 25 24" fill="none" xmlns="http://www.w3.org/2000/svg">
<g id="3. Icons/1. Small/Delivery 2">
<path id="Shape" fill-rule="evenodd" clipRule="evenodd" d="M13.7577 4.36365C14.9627 4.36365 15.9395 5.34048 15.9395 6.54547H18.9562C19.7845 6.54547 20.5413 7.0144 20.9099 7.75602L22.2569 10.4654C22.4069 10.7672 22.485 11.0996 22.485 11.4367V15.2727C22.485 16.4777 21.5082 17.4546 20.3032 17.4546L20.2485 17.455C19.9957 18.6997 18.8952 19.6364 17.5759 19.6364C16.2566 19.6364 15.1562 18.6997 14.9033 17.455H10.4303C10.1775 18.6997 9.07699 19.6364 7.75772 19.6364C6.43846 19.6364 5.33798 18.6997 5.0851 17.455L5.03045 17.4546C3.82547 17.4546 2.84863 16.4777 2.84863 15.2727V6.54547C2.84863 5.34048 3.82547 4.36365 5.03045 4.36365H13.7577ZM7.75772 15.8182C7.15523 15.8182 6.66681 16.3066 6.66681 16.9091C6.66681 17.5116 7.15523 18 7.75772 18C8.36022 18 8.84863 17.5116 8.84863 16.9091C8.84863 16.3066 8.36022 15.8182 7.75772 15.8182ZM17.5759 15.8182C16.9734 15.8182 16.485 16.3066 16.485 16.9091C16.485 17.5116 16.9734 18 17.5759 18C18.1784 18 18.6668 17.5116 18.6668 16.9091C18.6668 16.3066 18.1784 15.8182 17.5759 15.8182ZM13.2123 6.00001H5.57591C5.01645 6.00001 4.55535 6.42115 4.49234 6.9637L4.485 7.09092V14.7273C4.485 15.2262 4.81988 15.6468 5.27712 15.7768C5.70731 14.8348 6.65627 14.1818 7.75772 14.1818C8.87615 14.1818 9.83734 14.8551 10.2581 15.8184L14.3032 15.8182V7.09092C14.3032 6.48843 13.8148 6.00001 13.2123 6.00001ZM20.8486 12.5455H16.485L16.4852 14.4087C16.8192 14.2628 17.1881 14.1818 17.5759 14.1818C18.6774 14.1818 19.6263 14.8348 20.0568 15.7747C20.4743 15.6581 20.7899 15.2966 20.8413 14.8545L20.8486 14.7273V12.5455ZM11.8377 8.14307C12.1572 8.46258 12.1572 8.98063 11.8377 9.30015L9.13784 12C8.81832 12.3195 8.30028 12.3195 7.98076 12L6.80778 10.8251C6.48826 10.5056 6.48826 9.98753 6.80778 9.66801C7.1273 9.34849 7.64534 9.34849 7.96486 9.66801L8.55905 10.2631L10.6806 8.14307C11.0001 7.82355 11.5182 7.82355 11.8377 8.14307ZM18.739 8.18183H16.485V10.9091H20.8486L19.7015 8.75918C19.5118 8.4038 19.1418 8.18183 18.739 8.18183Z" fill="#02A77D"/>
</g>
</svg>
