<svg width="24" height="24" viewBox="0 0 24 24" fill="none" xmlns="http://www.w3.org/2000/svg">
<path fill-rule="evenodd" clip-rule="evenodd" d="M18.6667 0H5.33333C2.69267 0 0 2.75208 0 5.33333V18.6667C0 21.3591 2.70919 24 5.33333 24H12.828V14.7187H9.704V11.361H12.828V8.412C12.828 5.31333 14.7227 3.624 17.488 3.624C18.42 3.62133 19.3467 3.624 20.2773 3.624V7.004H18.3733C16.8667 7.004 16.5733 7.716 16.5733 8.76667V11.3557H19.9473L19.1722 14.7133H16.552V24H18.6667C21.3814 24 24 21.3207 24 18.6667V5.33333C24 2.69998 21.3611 0 18.6667 0Z" fill="#F57E5D"/>
</svg>
