<svg width="24" height="24" viewBox="0 0 24 24" fill="none" xmlns="http://www.w3.org/2000/svg">
<g clip-path="url(#clip0_6054_148914)">
<path d="M23.4404 12.2242C23.4404 11.2409 23.3606 10.5234 23.1879 9.7793H11.96V14.2173H18.5505C18.4177 15.3202 17.7002 16.9811 16.1056 18.0972L16.0833 18.2458L19.6334 20.996L19.8793 21.0205C22.1382 18.9344 23.4404 15.8649 23.4404 12.2242Z" fill="#4285F4"/>
<path d="M11.9596 23.9178C15.1884 23.9178 17.899 22.8548 19.8789 21.0211L16.1053 18.0978C15.0954 18.8021 13.7401 19.2937 11.9596 19.2937C8.79716 19.2937 6.1131 17.2076 5.15631 14.3242L5.01606 14.3361L1.32464 17.193L1.27637 17.3271C3.2429 21.2337 7.28232 23.9178 11.9596 23.9178Z" fill="#34A853"/>
<path d="M5.15649 14.3248C4.90403 13.5807 4.75792 12.7834 4.75792 11.9596C4.75792 11.1357 4.90403 10.3385 5.14321 9.59439L5.13652 9.43592L1.39884 6.5332L1.27655 6.59137C0.466045 8.21247 0.000976562 10.0329 0.000976562 11.9596C0.000976562 13.8863 0.466045 15.7066 1.27655 17.3277L5.15649 14.3248Z" fill="#FBBC05"/>
<path d="M11.9596 4.62403C14.2051 4.62403 15.7199 5.59402 16.5836 6.40461L19.9586 3.10928C17.8858 1.1826 15.1884 0 11.9596 0C7.28232 0 3.2429 2.68406 1.27637 6.59056L5.14302 9.59359C6.1131 6.7102 8.79716 4.62403 11.9596 4.62403Z" fill="#EB4335"/>
</g>
<defs>
<clipPath id="clip0_6054_148914">
<rect width="23.4528" height="24" fill="white"/>
</clipPath>
</defs>
</svg>
