<svg width="20" height="21" viewBox="0 0 20 21" fill="none" xmlns="http://www.w3.org/2000/svg">
<path fill-rule="evenodd" clipRule="evenodd" d="M7.96658 0.5C12.3664 0.5 15.9332 4.06676 15.9332 8.46658C15.9332 10.2846 15.1591 12.1415 14.134 13.4822L19.5232 18.8679C19.9065 19.2799 19.9985 19.7736 19.6886 20.1886C19.3788 20.6036 18.6414 20.6036 18.1862 20.1889L12.7956 14.8032C11.4559 15.8258 9.78214 16.4332 7.96658 16.4332C3.56676 16.4332 0 12.8664 0 8.46658C0 4.06676 3.56676 0.5 7.96658 0.5ZM7.96658 2.19488C4.37679 2.19488 1.65316 4.87443 1.65316 8.46658C1.65316 12.0587 4.09071 14.8032 7.96658 14.8032C11.8424 14.8032 14.3925 12.1806 14.3925 8.46658C14.3925 4.75254 11.5564 2.19488 7.96658 2.19488Z" fill="#607D8B"/>
</svg>
