<svg width="20" height="21" viewBox="0 0 20 21" fill="none" xmlns="http://www.w3.org/2000/svg">
<path d="M9.99967 7.16671C8.15801 7.16671 6.66634 8.65837 6.66634 10.5C6.66634 12.3417 8.15801 13.8334 9.99967 13.8334C11.8413 13.8334 13.333 12.3417 13.333 10.5C13.333 8.65837 11.8413 7.16671 9.99967 7.16671ZM17.4497 9.66671C17.0663 6.19171 14.308 3.43337 10.833 3.05004V1.33337H9.16634V3.05004C5.69134 3.43337 2.93301 6.19171 2.54967 9.66671H0.833008V11.3334H2.54967C2.93301 14.8084 5.69134 17.5667 9.16634 17.95V19.6667H10.833V17.95C14.308 17.5667 17.0663 14.8084 17.4497 11.3334H19.1663V9.66671H17.4497ZM9.99967 16.3334C6.77467 16.3334 4.16634 13.725 4.16634 10.5C4.16634 7.27504 6.77467 4.66671 9.99967 4.66671C13.2247 4.66671 15.833 7.27504 15.833 10.5C15.833 13.725 13.2247 16.3334 9.99967 16.3334Z" fill="#78909C"/>
</svg>
