<svg width="24" height="24" viewBox="0 0 24 24" fill="none" xmlns="http://www.w3.org/2000/svg">
<path fill-rule="evenodd" clip-rule="evenodd" d="M18.6667 0C21.6122 0 24 2.38781 24 5.33333V18.6667C24 21.6122 21.6122 24 18.6667 24H5.33333C2.38781 24 0 21.6122 0 18.6667V5.33333C0 2.38781 2.38781 0 5.33333 0H18.6667ZM12.0002 5.33338C8.31826 5.33338 5.3335 8.31815 5.3335 12C5.3335 15.6819 8.31826 18.6667 12.0002 18.6667C15.6821 18.6667 18.6668 15.6819 18.6668 12C18.6668 8.31815 15.6821 5.33338 12.0002 5.33338ZM11.9993 8.00002C14.2085 8.00002 15.9993 9.79088 15.9993 12C15.9993 14.2092 14.2085 16 11.9993 16C9.79021 16 7.99935 14.2092 7.99935 12C7.99935 9.79088 9.79021 8.00002 11.9993 8.00002ZM19.9997 2.66664C19.2633 2.66664 18.6663 3.26359 18.6663 3.99997C18.6663 4.73635 19.2633 5.3333 19.9997 5.3333C20.736 5.3333 21.333 4.73635 21.333 3.99997C21.333 3.26359 20.736 2.66664 19.9997 2.66664Z" fill="#F57E5D"/>
</svg>
