<svg width="16" height="17" viewBox="0 0 16 17" fill="none" xmlns="http://www.w3.org/2000/svg">
<g id="ThumbDownOutlined">
<path id="Vector" d="M10.0003 2.5H4.00033C3.44699 2.5 2.97366 2.83333 2.77366 3.31333L0.760326 8.01333C0.700326 8.16667 0.666992 8.32667 0.666992 8.5V9.83333C0.666992 10.5667 1.26699 11.1667 2.00033 11.1667H6.20699L5.57366 14.2133L5.55366 14.4267C5.55366 14.7 5.66699 14.9533 5.84699 15.1333L6.55366 15.8333L10.947 11.44C11.187 11.2 11.3337 10.8667 11.3337 10.5V3.83333C11.3337 3.1 10.7337 2.5 10.0003 2.5ZM10.0003 10.5L7.10699 13.3933L8.00033 9.83333H2.00033V8.5L4.00033 3.83333H10.0003V10.5ZM12.667 2.5H15.3337V10.5H12.667V2.5Z" fill="#B0BEC5"/>
</g>
</svg>
