<svg xmlns="http://www.w3.org/2000/svg" width="18" height="18" viewBox="0 0 18 18" fill="none">
<path d="M9 15.7143C8.84524 15.7143 8.71429 15.6607 8.60714 15.5536L3.03571 10.1786C2.97619 10.131 2.89435 10.0536 2.79018 9.94643C2.68601 9.83928 2.52083 9.64434 2.29464 9.36161C2.06845 9.07887 1.86607 8.78869 1.6875 8.49107C1.50893 8.19345 1.3497 7.83333 1.20982 7.41071C1.06994 6.98809 1 6.57738 1 6.17857C1 4.86905 1.37798 3.84524 2.13393 3.10714C2.88988 2.36905 3.93452 2 5.26786 2C5.63691 2 6.01339 2.06399 6.39732 2.19196C6.78125 2.31994 7.13839 2.49256 7.46875 2.70982C7.79911 2.92708 8.08333 3.13095 8.32143 3.32143C8.55952 3.5119 8.78571 3.71429 9 3.92857C9.21429 3.71429 9.44048 3.5119 9.67857 3.32143C9.91667 3.13095 10.2009 2.92708 10.5312 2.70982C10.8616 2.49256 11.2188 2.31994 11.6027 2.19196C11.9866 2.06399 12.3631 2 12.7321 2C14.0655 2 15.1101 2.36905 15.8661 3.10714C16.622 3.84524 17 4.86905 17 6.17857C17 7.49405 16.3185 8.83333 14.9554 10.1964L9.39286 15.5536C9.28572 15.6607 9.15476 15.7143 9 15.7143Z" fill="black" fill-opacity="0.18"/>
</svg>