<svg width="21" height="21" viewBox="0 0 21 21" fill="none" xmlns="http://www.w3.org/2000/svg">
<path fill-rule="evenodd" clipRule="evenodd" d="M14.6944 0C11.6386 0 10.5 2.04412 10.5 2.04412C10.5 2.04412 9.36139 0 6.30556 0C3.09878 0 0.5 2.70912 0.5 6.05207C0.5 10.6417 5.2611 15.2122 6.70616 16.6174C7.96927 17.8448 9.4999 19.2654 10.1648 19.8794C10.3549 20.0549 10.6456 20.0555 10.8362 19.8805C11.5048 19.2673 13.0456 17.8456 14.3096 16.6174C15.7546 15.2122 20.5 10.6417 20.5 6.05207C20.5 2.70912 17.9012 0 14.6944 0ZM13.1376 15.4177C12.9615 15.6038 10.5 17.9975 10.5 17.9975C10.5 17.9975 8.14329 15.6781 7.89369 15.4177C6.44419 13.9052 2.24024 9.50207 2.24024 6.05207C2.24024 3.62487 4.17779 1.73061 6.21502 1.73061C8.14352 1.73061 9.26135 2.95815 9.29091 2.99446L10.5121 4.27063L11.7066 2.99446C11.7171 2.98016 12.854 1.73061 14.7825 1.73061C16.8197 1.73061 18.8013 3.59315 18.8013 6.05207C18.8013 9.50207 14.6055 13.867 13.1376 15.4177Z" fill="#455A64"/>
</svg>
