<svg width="16" height="17" viewBox="0 0 16 17" fill="none" xmlns="http://www.w3.org/2000/svg">
<g id="ThumbUpOutlined">
<path id="Vector" d="M6.00033 14.5H12.0003C12.5537 14.5 13.027 14.1666 13.227 13.6866L15.2403 8.98663C15.3003 8.83329 15.3337 8.67329 15.3337 8.49996V7.16663C15.3337 6.43329 14.7337 5.83329 14.0003 5.83329H9.79366L10.427 2.78663L10.447 2.57329C10.447 2.29996 10.3337 2.04663 10.1537 1.86663L9.44699 1.16663L5.05366 5.55996C4.81366 5.79996 4.66699 6.13329 4.66699 6.49996V13.1666C4.66699 13.9 5.26699 14.5 6.00033 14.5ZM6.00033 6.49996L8.89366 3.60663L8.00033 7.16663H14.0003V8.49996L12.0003 13.1666H6.00033V6.49996ZM0.666992 6.49996H3.33366V14.5H0.666992V6.49996Z" fill="#607D8B"/>
</g>
</svg>
