<svg width="167" height="22" viewBox="0 0 167 22" fill="none" xmlns="http://www.w3.org/2000/svg">
<path d="M0.184 21V1.26H13.204V4.088H3.796V9.688H12.56V12.516H3.796V21H0.184ZM20.8406 21.28C19.6086 21.28 18.5259 20.9907 17.5926 20.412C16.6592 19.8147 15.9312 18.9653 15.4086 17.864C14.8859 16.7627 14.6246 15.4467 14.6246 13.916C14.6246 12.3853 14.8859 11.0787 15.4086 9.996C15.9312 8.89467 16.6592 8.05467 17.5926 7.476C18.5259 6.87867 19.6086 6.58 20.8406 6.58C22.0352 6.58 23.0806 6.87867 23.9766 7.476C24.8912 8.05467 25.4979 8.83867 25.7966 9.828H25.4886L25.7966 6.86H29.1566C29.1006 7.43867 29.0446 8.02667 28.9886 8.624C28.9512 9.22133 28.9326 9.80933 28.9326 10.388V21H25.4606L25.4326 18.088H25.7686C25.4699 19.0587 24.8632 19.8333 23.9486 20.412C23.0339 20.9907 21.9979 21.28 20.8406 21.28ZM21.8206 18.592C22.9219 18.592 23.8086 18.2093 24.4806 17.444C25.1526 16.66 25.4886 15.484 25.4886 13.916C25.4886 12.348 25.1526 11.1813 24.4806 10.416C23.8086 9.65067 22.9219 9.268 21.8206 9.268C20.7192 9.268 19.8326 9.65067 19.1606 10.416C18.4886 11.1813 18.1526 12.348 18.1526 13.916C18.1526 15.484 18.4792 16.66 19.1326 17.444C19.8046 18.2093 20.7006 18.592 21.8206 18.592ZM37.7838 21.28C36.5705 21.28 35.4505 21.14 34.4238 20.86C33.4158 20.5613 32.5665 20.1507 31.8758 19.628L32.8558 17.276C33.5652 17.7613 34.3492 18.1347 35.2078 18.396C36.0665 18.6573 36.9345 18.788 37.8118 18.788C38.7452 18.788 39.4358 18.6293 39.8838 18.312C40.3505 17.9947 40.5838 17.5653 40.5838 17.024C40.5838 16.5947 40.4345 16.2587 40.1358 16.016C39.8558 15.7547 39.3985 15.5587 38.7638 15.428L35.9638 14.896C34.7692 14.6347 33.8545 14.1867 33.2198 13.552C32.6038 12.9173 32.2958 12.0867 32.2958 11.06C32.2958 10.1827 32.5292 9.408 32.9958 8.736C33.4812 8.064 34.1625 7.54133 35.0398 7.168C35.9358 6.776 36.9812 6.58 38.1758 6.58C39.2212 6.58 40.2012 6.72 41.1158 7C42.0492 7.28 42.8332 7.7 43.4678 8.26L42.4598 10.528C41.8812 10.0613 41.2185 9.69733 40.4718 9.436C39.7252 9.17467 38.9972 9.044 38.2878 9.044C37.3172 9.044 36.6078 9.22133 36.1598 9.576C35.7118 9.912 35.4878 10.3507 35.4878 10.892C35.4878 11.3027 35.6185 11.648 35.8798 11.928C36.1598 12.1893 36.5892 12.3853 37.1678 12.516L39.9678 13.048C41.2185 13.2907 42.1612 13.72 42.7958 14.336C43.4492 14.9333 43.7758 15.7547 43.7758 16.8C43.7758 17.7333 43.5238 18.536 43.0198 19.208C42.5158 19.88 41.8158 20.3933 40.9198 20.748C40.0238 21.1027 38.9785 21.28 37.7838 21.28ZM46.7712 21V0.391998H50.2712V9.688H49.8792C50.3085 8.68 50.9712 7.91467 51.8672 7.392C52.7632 6.85067 53.7899 6.58 54.9472 6.58C56.6272 6.58 57.8779 7.056 58.6992 8.008C59.5205 8.94133 59.9312 10.3693 59.9312 12.292V21H56.4312V12.46C56.4312 11.3587 56.2165 10.5653 55.7872 10.08C55.3765 9.576 54.7139 9.324 53.7992 9.324C52.7352 9.324 51.8765 9.66 51.2232 10.332C50.5885 10.9853 50.2712 11.8627 50.2712 12.964V21H46.7712ZM63.6423 21V6.86H67.1423V21H63.6423ZM63.4463 4.2V0.783998H67.3383V4.2H63.4463ZM77.3271 21.28C75.8711 21.28 74.6111 20.9813 73.5471 20.384C72.4831 19.7867 71.6524 18.9373 71.0551 17.836C70.4764 16.7347 70.1871 15.428 70.1871 13.916C70.1871 12.404 70.4764 11.1067 71.0551 10.024C71.6524 8.92267 72.4831 8.07333 73.5471 7.476C74.6111 6.87867 75.8711 6.58 77.3271 6.58C78.7831 6.58 80.0431 6.87867 81.1071 7.476C82.1897 8.07333 83.0204 8.92267 83.5991 10.024C84.1964 11.1067 84.4951 12.404 84.4951 13.916C84.4951 15.428 84.1964 16.7347 83.5991 17.836C83.0204 18.9373 82.1897 19.7867 81.1071 20.384C80.0431 20.9813 78.7831 21.28 77.3271 21.28ZM77.3271 18.592C78.4284 18.592 79.3057 18.2093 79.9591 17.444C80.6124 16.66 80.9391 15.484 80.9391 13.916C80.9391 12.348 80.6124 11.1813 79.9591 10.416C79.3057 9.65067 78.4284 9.268 77.3271 9.268C76.2257 9.268 75.3484 9.65067 74.6951 10.416C74.0417 11.1813 73.7151 12.348 73.7151 13.916C73.7151 15.484 74.0417 16.66 74.6951 17.444C75.3484 18.2093 76.2257 18.592 77.3271 18.592ZM87.5134 21V10.388C87.5134 9.80933 87.4947 9.22133 87.4574 8.624C87.42 8.02667 87.364 7.43867 87.2894 6.86H90.6774L90.9574 9.66H90.6214C91.0694 8.67067 91.732 7.91467 92.6094 7.392C93.4867 6.85067 94.504 6.58 95.6614 6.58C97.3227 6.58 98.5734 7.04667 99.4134 7.98C100.253 8.91333 100.673 10.3693 100.673 12.348V21H97.1734V12.516C97.1734 11.3773 96.9494 10.5653 96.5014 10.08C96.072 9.576 95.4187 9.324 94.5414 9.324C93.4587 9.324 92.6 9.66 91.9654 10.332C91.3307 11.004 91.0134 11.9 91.0134 13.02V21H87.5134ZM113.848 21.28C111.795 21.28 110.031 20.8693 108.556 20.048C107.1 19.208 105.98 18.032 105.196 16.52C104.412 14.9893 104.02 13.188 104.02 11.116C104.02 9.044 104.412 7.252 105.196 5.74C105.98 4.228 107.1 3.06133 108.556 2.24C110.031 1.4 111.795 0.979999 113.848 0.979999C115.23 0.979999 116.471 1.176 117.572 1.568C118.692 1.96 119.654 2.53867 120.456 3.304L119.28 6.16C118.403 5.45067 117.554 4.94667 116.732 4.648C115.93 4.33067 115.006 4.172 113.96 4.172C111.963 4.172 110.432 4.77867 109.368 5.992C108.323 7.18667 107.8 8.89467 107.8 11.116C107.8 13.3373 108.323 15.0547 109.368 16.268C110.432 17.4813 111.963 18.088 113.96 18.088C115.006 18.088 115.93 17.9387 116.732 17.64C117.554 17.3227 118.403 16.8 119.28 16.072L120.456 18.928C119.654 19.6747 118.692 20.2533 117.572 20.664C116.471 21.0747 115.23 21.28 113.848 21.28ZM128.52 21.28C127.288 21.28 126.206 20.9907 125.272 20.412C124.339 19.8147 123.611 18.9653 123.088 17.864C122.566 16.7627 122.304 15.4467 122.304 13.916C122.304 12.3853 122.566 11.0787 123.088 9.996C123.611 8.89467 124.339 8.05467 125.272 7.476C126.206 6.87867 127.288 6.58 128.52 6.58C129.715 6.58 130.76 6.87867 131.656 7.476C132.571 8.05467 133.178 8.83867 133.476 9.828H133.168L133.476 6.86H136.836C136.78 7.43867 136.724 8.02667 136.668 8.624C136.631 9.22133 136.612 9.80933 136.612 10.388V21H133.14L133.112 18.088H133.448C133.15 19.0587 132.543 19.8333 131.628 20.412C130.714 20.9907 129.678 21.28 128.52 21.28ZM129.5 18.592C130.602 18.592 131.488 18.2093 132.16 17.444C132.832 16.66 133.168 15.484 133.168 13.916C133.168 12.348 132.832 11.1813 132.16 10.416C131.488 9.65067 130.602 9.268 129.5 9.268C128.399 9.268 127.512 9.65067 126.84 10.416C126.168 11.1813 125.832 12.348 125.832 13.916C125.832 15.484 126.159 16.66 126.812 17.444C127.484 18.2093 128.38 18.592 129.5 18.592ZM140.396 21V10.472C140.396 9.87467 140.377 9.268 140.34 8.652C140.321 8.036 140.274 7.43867 140.2 6.86H143.588L143.98 10.724H143.42C143.606 9.79067 143.914 9.016 144.344 8.4C144.792 7.784 145.333 7.32667 145.968 7.028C146.602 6.72933 147.293 6.58 148.04 6.58C148.376 6.58 148.646 6.59867 148.852 6.636C149.057 6.65467 149.262 6.70133 149.468 6.776L149.44 9.856C149.085 9.70667 148.777 9.61333 148.516 9.576C148.273 9.53867 147.965 9.52 147.592 9.52C146.789 9.52 146.108 9.688 145.548 10.024C145.006 10.36 144.596 10.8267 144.316 11.424C144.054 12.0213 143.924 12.7027 143.924 13.468V21H140.396ZM158.257 21.28C156.577 21.28 155.307 20.8413 154.449 19.964C153.59 19.0867 153.161 17.7707 153.161 16.016V9.492H150.445V6.86H153.161V3.248L156.661 2.352V6.86H160.441V9.492H156.661V15.792C156.661 16.7627 156.847 17.444 157.221 17.836C157.594 18.228 158.107 18.424 158.761 18.424C159.115 18.424 159.414 18.396 159.657 18.34C159.918 18.284 160.17 18.2093 160.413 18.116V20.888C160.095 21.0187 159.741 21.112 159.349 21.168C158.975 21.2427 158.611 21.28 158.257 21.28Z" fill="#F57E5D"/>
<path d="M162.918 21V17.108H166.838V21H162.918Z" fill="#02A77D"/>
</svg>
