<svg width="32" height="32" viewBox="0 0 32 32" fill="none" xmlns="http://www.w3.org/2000/svg">
<path d="M12.0003 24.6667C12.0003 25.403 12.5973 26 13.3337 26H28.0003C28.7367 26 29.3337 25.403 29.3337 24.6667C29.3337 23.9303 28.7367 23.3333 28.0003 23.3333H13.3337C12.5973 23.3333 12.0003 23.9303 12.0003 24.6667ZM4.00033 6C3.26395 6 2.66699 6.59695 2.66699 7.33333C2.66699 8.06971 3.26395 8.66667 4.00033 8.66667H28.0003C28.7367 8.66667 29.3337 8.06971 29.3337 7.33333C29.3337 6.59695 28.7367 6 28.0003 6H4.00033ZM14.667 16.6667C14.667 17.403 15.2639 18 16.0003 18H28.0003C28.7367 18 29.3337 17.403 29.3337 16.6667C29.3337 15.9303 28.7367 15.3333 28.0003 15.3333H16.0003C15.2639 15.3333 14.667 15.9303 14.667 16.6667Z" fill="#78909C"/>
<rect x="9.33301" y="15.3334" width="2.66667" height="2.66667" rx="1.33333" fill="#78909C"/>
</svg>
