<svg width="16" height="16" viewBox="0 0 16 16" fill="none" xmlns="http://www.w3.org/2000/svg">
<g id="LocalOfferOutlined">
<path id="Vector" d="M14.273 7.72004L8.27301 1.72004C8.03301 1.48004 7.69967 1.33337 7.33301 1.33337H2.66634C1.93301 1.33337 1.33301 1.93337 1.33301 2.66671V7.33337C1.33301 7.70004 1.47967 8.03337 1.72634 8.28004L7.72634 14.28C7.96634 14.52 8.29967 14.6667 8.66634 14.6667C9.03301 14.6667 9.36634 14.52 9.60634 14.2734L14.273 9.60671C14.5197 9.36671 14.6663 9.03337 14.6663 8.66671C14.6663 8.30004 14.513 7.96004 14.273 7.72004ZM8.66634 13.34L2.66634 7.33337V2.66671H7.33301V2.66004L13.333 8.66004L8.66634 13.34Z" fill="#02A77D"/>
<path id="Vector_2" d="M4.33301 5.33337C4.88529 5.33337 5.33301 4.88566 5.33301 4.33337C5.33301 3.78109 4.88529 3.33337 4.33301 3.33337C3.78072 3.33337 3.33301 3.78109 3.33301 4.33337C3.33301 4.88566 3.78072 5.33337 4.33301 5.33337Z" fill="#02A77D"/>
</g>
</svg>
