<svg width="25" height="24" viewBox="0 0 25 24" fill="none" xmlns="http://www.w3.org/2000/svg">
<path fill-rule="evenodd" clip-rule="evenodd" d="M12.375 0C5.74759 0 0.375 5.37261 0.375 12C0.375 17.0838 3.53798 21.4298 8.00186 23.1782C7.897 22.2288 7.80218 20.7686 8.04347 19.7321C8.26155 18.7956 9.45061 13.7674 9.45061 13.7674C9.45061 13.7674 9.09167 13.0485 9.09167 11.9857C9.09167 10.3171 10.0588 9.07141 11.263 9.07141C12.2868 9.07141 12.7813 9.84005 12.7813 10.7618C12.7813 11.7914 12.1258 13.3307 11.7875 14.7572C11.5048 15.9516 12.3865 16.9256 13.5645 16.9256C15.6973 16.9256 17.3368 14.6768 17.3368 11.4306C17.3368 8.55735 15.2722 6.54849 12.3243 6.54849C8.90989 6.54849 6.90576 9.10948 6.90576 11.7561C6.90576 12.7875 7.30307 13.8935 7.79883 14.4947C7.8969 14.6135 7.91127 14.7176 7.88205 14.8389C7.79096 15.2179 7.58853 16.033 7.54879 16.1998C7.49645 16.4194 7.37487 16.4661 7.14745 16.3602C5.64873 15.6626 4.71169 13.4714 4.71169 11.7114C4.71169 7.92603 7.46203 4.44963 12.6405 4.44963C16.8033 4.44963 20.0383 7.41599 20.0383 11.3803C20.0383 15.5159 17.4307 18.8443 13.8114 18.8443C12.5954 18.8443 11.4523 18.2126 11.061 17.4664C11.061 17.4664 10.4593 19.7575 10.3134 20.319C10.0425 21.3613 9.31112 22.6678 8.82195 23.4649C9.9447 23.8125 11.1379 24 12.375 24C19.0024 24 24.375 18.6274 24.375 12C24.375 5.37261 19.0024 0 12.375 0Z" fill="#F57E5D"/>
</svg>
