<svg width="20" height="20" viewBox="0 0 20 20" fill="none" xmlns="http://www.w3.org/2000/svg">
<path fill-rule="evenodd" clipRule="evenodd" d="M15.5952 12.2222C17.743 12.2222 20 13.9633 20 16.1111V17.7778C20 19.0051 19.0051 20 17.7778 20H2.22222C0.994923 20 0 19.0051 0 17.7778V16.1111C0 13.9633 2.29967 12.2222 4.44744 12.2222H15.5952ZM4.44028 13.8889C2.6482 13.8889 1.75759 14.7954 1.67276 15.9453L1.66667 16.1111V17.2222C1.66667 17.792 2.0956 18.2617 2.6482 18.3259L2.77778 18.3333H17.2222C17.792 18.3333 18.2617 17.9044 18.3259 17.3518L18.3333 17.2222V16.1111C18.3333 14.9396 17.2222 13.88 15.584 13.8889C13.9457 13.8977 4.44028 13.8889 4.44028 13.8889ZM10 0C13.0682 0 15.5556 2.48731 15.5556 5.55556C15.5556 8.62381 13.0682 11.1111 10 11.1111C6.93175 11.1111 4.44444 8.62381 4.44444 5.55556C4.44444 2.48731 6.93175 0 10 0ZM10 1.66667C7.85223 1.66667 6.11111 3.40778 6.11111 5.55556C6.11111 7.70333 7.85223 9.44444 10 9.44444C12.1478 9.44444 13.8889 7.70333 13.8889 5.55556C13.8889 3.40778 12.1478 1.66667 10 1.66667Z" fill="#455A64"/>
</svg>
