<svg width="24" height="24" viewBox="0 0 24 24" fill="none" xmlns="http://www.w3.org/2000/svg">
<g id="3. Icons/1. Small/Discount 2">
<path id="Discount 2" fill-rule="evenodd" clipRule="evenodd" d="M12.9563 2.56072L13.0265 2.63135C13.6057 3.25693 14.4755 3.5071 15.2882 3.29557L15.4745 3.23852C16.2058 2.98032 17.0066 3.36755 17.2632 4.10343L17.2927 4.1988C17.5178 5.02779 18.1781 5.6583 19.0012 5.8475L19.1799 5.8812C19.9467 5.99455 20.4769 6.71194 20.3643 7.48352L20.3464 7.58176C20.1497 8.48101 20.5007 9.41212 21.2405 9.95399C21.867 10.4129 22.0053 11.2961 21.5492 11.9266L21.488 12.0053C20.9406 12.6592 20.7987 13.5583 21.1053 14.3446L21.1841 14.5239C21.5269 15.2232 21.2414 16.0699 20.5464 16.4149L20.4559 16.4559C19.6652 16.7807 19.1228 17.5163 19.0354 18.3613L19.0237 18.5439C19.0043 19.3235 18.3605 19.9397 17.5857 19.9202L17.4866 19.9141C16.6365 19.8319 15.8166 20.2296 15.3489 20.9369L15.2542 21.0932C14.877 21.7744 14.0224 22.019 13.3454 21.6394L13.2604 21.5877C12.5493 21.1198 11.6452 21.0863 10.9065 21.4874L10.7392 21.5877C10.0905 22.0145 9.22088 21.8314 8.79674 21.1787L8.74539 21.0932C8.3297 20.3425 7.53867 19.8893 6.69452 19.9038L6.51293 19.9141C5.74149 19.9887 5.05602 19.4199 4.9819 18.6436L4.97591 18.5439C4.95452 17.6848 4.46339 16.9136 3.70923 16.5317L3.54367 16.4559C2.82615 16.1612 2.4819 15.337 2.77477 14.6149L2.81551 14.5239C3.1914 13.7571 3.1154 12.8499 2.6307 12.1604L2.51161 12.0053C2.01237 11.4088 2.08821 10.518 2.68099 10.0156L2.75912 9.95399C3.44607 9.45083 3.79772 8.61204 3.68699 7.77479L3.65317 7.58176C3.4866 6.82013 3.96514 6.06682 4.72202 5.8992L4.81966 5.8812C5.6646 5.75628 6.3662 5.17271 6.65205 4.37331L6.70684 4.1988C6.91109 3.4465 7.68272 3.00327 8.43031 3.2088L8.52508 3.23852C9.32681 3.52159 10.2126 3.33632 10.8344 2.76901L10.9731 2.63135C11.5013 2.06075 12.3893 2.02913 12.9563 2.56072ZM11.2508 4.11168L11.1442 4.21343L10.8104 4.57401C10.5286 4.87833 10.1115 5.00784 9.7141 4.92405L9.56631 4.88256L9.06493 4.70632L9.02522 4.69464C8.44673 4.53559 7.85097 4.84271 7.63253 5.38934L7.589 5.51963L7.45993 5.99502C7.351 6.39625 7.04146 6.70598 6.6509 6.81763L6.50088 6.85L6.01635 6.92163C5.98906 6.92567 5.96192 6.93067 5.93498 6.93664C5.3493 7.06634 4.96362 7.61689 5.02265 8.20305L5.04427 8.33877L5.14953 8.82007C5.23837 9.22628 5.10734 9.64529 4.81307 9.92679L4.69518 10.0256L4.23412 10.367C3.77814 10.7534 3.68922 11.4156 4.00545 11.9062L4.09297 12.025L4.40844 12.402C4.6747 12.7201 4.75219 13.1524 4.62163 13.5393L4.56289 13.6819L4.34622 14.1238C4.33402 14.1487 4.3227 14.1741 4.31227 14.1998C4.08565 14.7585 4.31681 15.3906 4.82974 15.6747L4.95302 15.7339L5.40644 15.9201C5.78913 16.0773 6.05737 16.4239 6.12044 16.8275L6.13429 16.9812L6.15155 17.557C6.2089 18.1577 6.70553 18.6093 7.2909 18.621L7.42741 18.6158L7.9149 18.5686C8.32634 18.5288 8.7239 18.7102 8.96613 19.0381L9.04941 19.1678L9.28779 19.5983C9.30121 19.6225 9.31549 19.6463 9.33058 19.6695C9.65879 20.1746 10.3071 20.3423 10.8308 20.0789L10.9493 20.0104L11.3591 19.7407C11.7051 19.513 12.1409 19.4878 12.5068 19.6648L12.6404 19.7407L13.0503 20.0104C13.0734 20.0256 13.097 20.0399 13.1211 20.0534C13.645 20.3472 14.2965 20.1925 14.6385 19.7143L14.7118 19.5983L14.9502 19.1678C15.1514 18.8045 15.5256 18.5783 15.9313 18.5639L16.0847 18.5686L16.5722 18.6158C16.5996 18.6184 16.6272 18.6201 16.6547 18.6208C17.2542 18.6359 17.7597 18.1942 17.8417 17.6109L17.853 17.4739L17.8653 16.9812C17.8756 16.5654 18.1025 16.1902 18.4552 15.9877L18.5931 15.9201L19.0466 15.7339C19.0721 15.7234 19.0972 15.712 19.122 15.6997C19.6598 15.4328 19.9033 14.8053 19.7066 14.2504L19.6534 14.1238L19.4367 13.6819C19.2538 13.3089 19.2814 12.8705 19.5002 12.5263L19.5911 12.402L19.9576 11.9595C20.3085 11.4745 20.2373 10.8101 19.8136 10.4099L19.7003 10.3156L19.3044 10.0256C18.9702 9.78084 18.7922 9.37976 18.8269 8.9727L18.85 8.82007L18.9553 8.33877C18.9612 8.31167 18.9662 8.28436 18.9702 8.2569C19.0574 7.65984 18.6826 7.10173 18.117 6.94941L17.9832 6.92163L17.4987 6.85C17.0898 6.78954 16.7469 6.51767 16.5897 6.14098L16.5396 5.99502L16.399 5.47968L16.386 5.44016C16.1874 4.87073 15.5978 4.55182 15.0267 4.68144L14.8954 4.7194L14.4333 4.88256C14.0432 5.02027 13.6141 4.93988 13.3009 4.67986L13.1892 4.57401L12.8554 4.21343L12.7969 4.15457C12.3607 3.74565 11.6967 3.73665 11.2508 4.11168ZM14.1321 12.4886C14.458 12.4886 14.7323 12.5577 14.9552 12.696C15.178 12.8344 15.3465 13.019 15.4606 13.2499C15.5463 13.4231 15.5998 13.6091 15.6212 13.808L15.6319 14.0112V14.3726L15.6211 14.5743C15.5995 14.772 15.5454 14.9574 15.459 15.1306C15.3437 15.3615 15.1741 15.5466 14.9502 15.6861C14.7262 15.8255 14.4536 15.8952 14.1321 15.8952C13.8062 15.8952 13.5324 15.8255 13.3107 15.6861C13.089 15.5466 12.921 15.3615 12.8069 15.1306C12.7212 14.9574 12.6671 14.772 12.6444 14.5743L12.6323 14.3726V14.0112L12.6446 13.8095C12.6677 13.6118 12.7229 13.4264 12.8102 13.2532C12.9266 13.0223 13.0956 12.8372 13.3173 12.6977C13.539 12.5583 13.8106 12.4886 14.1321 12.4886ZM13.935 8.80417C14.3658 8.80417 14.6205 9.28669 14.3775 9.64239L10.4274 15.424C10.3276 15.5702 10.1619 15.6576 9.98492 15.6576C9.55413 15.6576 9.29941 15.1751 9.54243 14.8194L13.4925 9.03776C13.5924 8.89159 13.758 8.80417 13.935 8.80417ZM14.1321 13.3453C13.9326 13.3453 13.7945 13.4155 13.7181 13.5561C13.6607 13.6615 13.6242 13.7732 13.6086 13.8911L13.6 14.0112V14.3726L13.6085 14.4897C13.6239 14.6052 13.6599 14.7156 13.7164 14.821C13.7918 14.9616 13.9303 15.0318 14.1321 15.0318C14.3338 15.0318 14.4724 14.9627 14.5478 14.8244C14.6043 14.7206 14.639 14.61 14.6519 14.4924L14.6575 14.3726V14.0112L14.6522 13.8911C14.64 13.7732 14.6068 13.6615 14.5528 13.5561C14.4807 13.4155 14.3405 13.3453 14.1321 13.3453ZM9.59876 8.56657C9.92688 8.56657 10.2023 8.63573 10.4252 8.77405C10.648 8.91237 10.8165 9.09698 10.9306 9.32788C11.0163 9.50106 11.0698 9.6871 11.0912 9.886L11.1019 10.0892V10.4506L11.0911 10.6537C11.0695 10.8524 11.0154 11.0379 10.929 11.2102C10.8137 11.44 10.6441 11.6235 10.4202 11.7607C10.1962 11.8979 9.92244 11.9665 9.59876 11.9665C9.27508 11.9665 9.00238 11.8968 8.78068 11.7574C8.55898 11.6179 8.39104 11.4339 8.27686 11.2052C8.19123 11.0337 8.13709 10.8494 8.11443 10.6521L8.10227 10.4506V10.0892L8.11464 9.886C8.13771 9.6871 8.19289 9.50106 8.28019 9.32788C8.39658 9.09698 8.56618 8.91237 8.78899 8.77405C9.0118 8.63573 9.28173 8.56657 9.59876 8.56657ZM9.59876 9.42326C9.40144 9.42326 9.26565 9.49465 9.19138 9.63743C9.13568 9.74451 9.10024 9.85599 9.08507 9.97186L9.07665 10.0892V10.4506L9.08517 10.5704C9.10055 10.688 9.13651 10.7986 9.19305 10.9024C9.26842 11.0407 9.40366 11.1098 9.59876 11.1098C9.80273 11.1098 9.9424 11.0407 10.0178 10.9024C10.0743 10.7986 10.109 10.688 10.1219 10.5704L10.1275 10.4506V10.0892L10.1222 9.96914C10.11 9.85118 10.0768 9.73949 10.0228 9.63408C9.95071 9.49353 9.80938 9.42326 9.59876 9.42326Z" fill="#02A77D"/>
</g>
</svg>
