<svg width="28" height="24" viewBox="0 0 28 24" fill="none" xmlns="http://www.w3.org/2000/svg">
<path fill-rule="evenodd" clip-rule="evenodd" d="M27.875 2.84083C26.8812 3.32358 25.8137 3.64845 24.6933 3.79497C25.8376 3.04529 26.7151 1.8583 27.1284 0.442993C26.0588 1.13702 24.8729 1.64135 23.6102 1.91396C22.5998 0.73605 21.1606 0 19.5676 0C16.5084 0 14.0287 2.71362 14.0287 6.05878C14.0287 6.53358 14.0785 6.99702 14.172 7.43888C9.56867 7.18671 5.48767 4.7741 2.75454 1.10748C2.27895 2.00256 2.00584 3.04302 2.00584 4.15505C2.00584 6.25642 2.983 8.11132 4.46898 9.19722C3.5614 9.16541 2.70678 8.8928 1.96015 8.43959C1.96015 8.46571 1.96015 8.48956 1.96015 8.51569C1.96015 11.4519 3.86877 13.9009 6.40356 14.4563C5.93938 14.5949 5.44925 14.6687 4.94354 14.6687C4.58736 14.6687 4.23949 14.6301 3.902 14.5608C4.60709 16.9678 6.65278 18.7204 9.07645 18.7693C7.18133 20.3947 4.79296 21.3636 2.19691 21.3636C1.75039 21.3636 1.30906 21.3352 0.875 21.2784C3.32671 22.997 6.23741 24 9.36617 24C14.5827 24 19.5579 22.2059 22.2253 18.7693C24.768 15.4935 25.1253 10.6682 25.1253 6.76076C25.1253 6.49837 25.1201 6.23711 25.1097 5.977C26.1928 5.12168 27.1325 4.05509 27.875 2.84083Z" fill="#F57E5D"/>
</svg>
