<svg width="22" height="22" viewBox="0 0 22 22" fill="none" xmlns="http://www.w3.org/2000/svg">
<g id="3. Icons/1. Small/User">
<path id="Shape" fill-rule="evenodd" clipRule="evenodd" d="M16.0357 13C17.9687 13 20 14.567 20 16.5V18C20 19.1046 19.1046 20 18 20H4C2.89543 20 2 19.1046 2 18V16.5C2 14.567 4.0697 13 6.0027 13H16.0357ZM5.99626 14.5C4.38338 14.5 3.58183 15.3159 3.50549 16.3507L3.5 16.5V17.5C3.5 18.0128 3.88604 18.4355 4.38338 18.4933L4.5 18.5H17.5C18.0128 18.5 18.4355 18.114 18.4933 17.6166L18.5 17.5V16.5C18.5 15.4456 17.5 14.492 16.0256 14.5C14.5511 14.508 5.99626 14.5 5.99626 14.5ZM11 2C13.7614 2 16 4.23858 16 7C16 9.76142 13.7614 12 11 12C8.23858 12 6 9.76142 6 7C6 4.23858 8.23858 2 11 2ZM11 3.5C9.067 3.5 7.5 5.067 7.5 7C7.5 8.933 9.067 10.5 11 10.5C12.933 10.5 14.5 8.933 14.5 7C14.5 5.067 12.933 3.5 11 3.5Z" fill="#78909C"/>
</g>
</svg>
